<?xml version="1.0" encoding="utf-8"?>
<!-- Generator: Adobe Illustrator 24.0.3, SVG Export Plug-In . SVG Version: 6.00 Build 0)  -->
<svg version="1.1" id="Ebene_1" xmlns="http://www.w3.org/2000/svg" xmlns:xlink="http://www.w3.org/1999/xlink" x="0px" y="0px"
	 viewBox="0 0 98.4 98.4" style="enable-background:new 0 0 98.4 98.4;" xml:space="preserve">
<style type="text/css">
	.st0{fill:#282727;}
	.st1{fill:#FFFFFF;}
</style>
<g>
	<circle class="st0" cx="49.2" cy="49.2" r="49.2"/>
	<g>
		<path class="st1" d="M14.9,34.3h4.2v26.9h-4.2V34.3z"/>
		<path class="st1" d="M30.3,50.7l-6-9.6h4.5l2.4,4.1l1.9,3.4h0.2l1.7-3.4l2.1-4.1h4.3l-6,10.1l6.5,10h-4.5l-2.7-4.3
			c-0.8-1.5-1.5-2.7-2.1-3.6h-0.2l-1.9,3.6l-2.4,4.3h-4.3L30.3,50.7z"/>
		<path class="st1" d="M46.6,34.3h7c4.2,0,7.4,1.1,9.6,3.4c2.2,2.3,3.4,5.6,3.4,10s-1.1,7.7-3.3,10.1c-2.2,2.4-5.4,3.5-9.4,3.5h-7.2
			L46.6,34.3L46.6,34.3z M53.3,57.8c2.9,0,5.1-0.9,6.6-2.6s2.3-4.2,2.3-7.6c0-3.3-0.8-5.8-2.3-7.5s-3.7-2.5-6.7-2.5h-2.5v20.1
			L53.3,57.8L53.3,57.8z"/>
		<path class="st1" d="M73.6,60.7c-1.7-0.7-3.1-1.7-4.3-2.9l2.5-2.9c1,1,2.1,1.8,3.4,2.3c1.3,0.6,2.5,0.9,3.8,0.9
			c1.6,0,2.8-0.3,3.7-1c0.9-0.7,1.4-1.6,1.4-2.8c0-0.8-0.2-1.4-0.5-1.9s-0.8-0.9-1.4-1.3c-0.6-0.3-1.4-0.7-2.4-1.2l-3.7-1.6
			c-3.6-1.5-5.5-3.9-5.5-7c0-1.4,0.4-2.7,1.1-3.8c0.8-1.1,1.8-2,3.1-2.7c1.3-0.6,2.9-1,4.5-1c1.6,0,3.1,0.3,4.5,0.9
			c1.4,0.6,2.6,1.4,3.7,2.5l-2.2,2.7c-1.8-1.6-3.8-2.4-6-2.4c-1.4,0-2.5,0.3-3.3,0.9c-0.8,0.6-1.2,1.5-1.2,2.5
			c0,0.7,0.2,1.3,0.6,1.8c0.4,0.5,0.9,0.9,1.4,1.2c0.6,0.3,1.3,0.7,2.3,1.1l3.7,1.6c1.8,0.7,3.1,1.6,4.1,2.8
			c0.9,1.1,1.4,2.6,1.4,4.5c0,1.5-0.4,2.8-1.2,4c-0.8,1.2-1.9,2.1-3.3,2.8c-1.4,0.7-3.1,1-5,1C77,61.7,75.2,61.4,73.6,60.7z"/>
	</g>
</g>
</svg>
